<?xml version="1.0" standalone="no"?>
<!DOCTYPE svg PUBLIC "-//W3C//DTD SVG 20010904//EN"
 "http://www.w3.org/TR/2001/REC-SVG-20010904/DTD/svg10.dtd">
<svg version="1.0" xmlns="http://www.w3.org/2000/svg"
 width="3000.000000pt" height="3000.000000pt" viewBox="0 0 3000.000000 3000.000000"
 preserveAspectRatio="xMidYMid meet">
<metadata>
Created by potrace 1.14, written by Peter Selinger 2001-2017
</metadata>
<g transform="translate(0.000000,3000.000000) scale(0.100000,-0.100000)"
fill="#000000" stroke="none">
<path d="M15177 25299 c-37 -10 -152 -105 -213 -176 -117 -136 -247 -328 -363
-535 -85 -152 -134 -257 -211 -447 -46 -113 -60 -139 -65 -120 -3 13 -43 195
-90 404 -81 364 -86 381 -115 408 -17 15 -39 27 -51 27 -55 0 -180 -100 -242
-193 -57 -86 -233 -407 -355 -650 -67 -133 -124 -235 -137 -243 -20 -13 -1219
-534 -1229 -534 -2 0 -28 44 -56 98 -239 447 -623 727 -1094 797 -414 61 -779
-63 -1089 -370 -204 -201 -337 -429 -395 -680 -111 -474 39 -1043 383 -1455
61 -73 187 -198 253 -252 l32 -27 -159 -278 c-352 -617 -756 -1407 -963 -1883
-238 -548 -391 -1156 -428 -1700 -20 -289 9 -551 101 -921 7 -26 9 -57 6 -70
-4 -13 -72 -136 -153 -274 -252 -430 -679 -1169 -992 -1715 -165 -289 -357
-624 -427 -745 -257 -445 -553 -1017 -595 -1154 -30 -95 -27 -174 10 -248 37
-74 108 -143 147 -143 16 0 97 10 181 22 95 13 156 18 162 12 6 -6 4 -30 -5
-64 -26 -104 -37 -208 -33 -307 3 -87 8 -108 36 -165 38 -77 92 -130 171 -166
77 -36 175 -35 286 2 44 15 90 34 103 42 27 18 23 28 57 -141 231 -1146 748
-2239 1480 -3130 216 -264 520 -589 543 -580 9 3 39 -18 81 -57 262 -247 664
-555 1006 -772 87 -55 159 -106 162 -113 3 -8 -42 -62 -113 -136 -281 -288
-377 -423 -460 -647 -39 -106 -40 -221 -3 -301 75 -160 209 -221 414 -189 l84
13 46 -41 c73 -65 108 -72 339 -72 113 0 219 5 241 11 144 39 456 183 695 322
139 81 250 122 361 136 46 6 269 18 494 27 226 9 412 17 414 19 5 5 -15 10
-233 50 -206 39 -458 96 -656 148 -124 33 -125 34 -128 64 -4 43 20 63 73 63
24 0 153 -18 287 -40 349 -56 568 -85 963 -126 133 -14 312 -18 1055 -21 586
-3 969 -1 1110 7 389 20 839 63 1253 121 121 16 227 27 238 24 24 -8 26 -52 2
-59 -10 -3 -169 -35 -353 -71 -388 -77 -379 -74 -359 -86 9 -4 161 -26 339
-49 434 -54 504 -79 810 -279 153 -100 294 -170 447 -221 151 -50 224 -57 334
-35 73 15 94 16 162 5 113 -18 166 -5 307 76 38 22 53 25 95 19 199 -24 234
-17 316 64 209 209 92 547 -363 1042 -59 65 -88 104 -88 120 0 20 21 36 124
97 383 225 738 491 1086 815 80 74 147 131 150 126 9 -13 224 211 390 406 830
971 1352 2059 1600 3338 11 55 12 57 38 51 15 -4 61 -21 102 -37 64 -26 89
-31 165 -31 79 -1 97 2 147 27 65 32 105 77 146 164 26 55 27 65 27 208 0 105
-6 175 -18 234 -11 48 -14 88 -9 93 5 5 36 -1 73 -13 85 -28 186 -35 246 -18
34 9 63 28 99 64 87 87 106 192 59 332 -29 85 -232 492 -416 833 -231 430
-1380 2399 -1679 2879 -93 150 -108 261 -65 491 46 243 45 649 -1 995 -54 405
-153 758 -340 1211 -263 640 -526 1176 -874 1784 -65 113 -156 276 -203 363
l-85 158 90 81 c183 165 349 383 447 588 189 396 228 849 105 1209 -157 456
-606 847 -1069 928 -228 39 -578 -29 -837 -165 -245 -127 -477 -372 -614 -644
-24 -48 -46 -88 -48 -88 -2 0 -89 36 -193 81 -335 144 -663 273 -1031 404
-148 53 -141 47 -215 185 -102 189 -203 465 -262 711 -48 203 -111 295 -190
275 -81 -20 -331 -324 -459 -558 -16 -29 -31 -47 -33 -40 -3 6 -51 222 -108
478 -69 312 -109 475 -122 492 -23 31 -50 41 -86 31z m-132 -649 c4 -6 17 -63
31 -128 66 -321 197 -637 380 -915 107 -161 128 -164 159 -19 22 104 77 290
122 411 47 128 155 348 168 341 5 -3 23 -48 41 -100 138 -410 344 -786 615
-1125 106 -132 244 -269 343 -339 73 -53 176 -116 188 -116 26 0 -9 72 -156
324 -185 319 -189 326 -183 332 6 6 224 -81 432 -173 245 -109 557 -266 655
-331 100 -66 238 -196 315 -296 59 -77 119 -126 136 -109 6 6 -4 54 -30 139
-48 154 -57 243 -42 385 28 256 113 433 295 615 140 139 289 221 500 277 66
17 109 21 231 21 133 -1 160 -4 238 -28 487 -147 796 -574 797 -1101 0 -107
-17 -275 -29 -288 -4 -4 -13 22 -19 58 -29 156 -109 333 -205 453 -59 75 -166
163 -250 207 -31 17 -57 36 -57 44 0 7 14 31 32 54 62 78 140 257 113 257 -3
0 -40 -20 -83 -44 -150 -85 -299 -153 -481 -221 -318 -118 -484 -242 -637
-471 -118 -178 -167 -331 -168 -529 0 -236 65 -334 278 -415 169 -65 358 -187
449 -291 194 -220 718 -1149 1079 -1913 351 -742 476 -1058 576 -1451 89 -348
115 -555 116 -905 1 -352 -17 -518 -84 -754 -29 -102 -111 -318 -130 -341 -4
-5 -38 -66 -75 -135 -118 -219 -252 -418 -408 -605 -95 -113 -89 -123 32 -48
170 105 421 305 552 440 42 43 106 122 143 176 69 100 89 113 118 80 20 -24
1436 -2409 1485 -2503 325 -615 523 -1000 523 -1018 0 -32 -32 -28 -117 12
-152 73 -288 180 -422 332 -84 97 -140 134 -200 134 -48 0 -71 -16 -71 -49 0
-34 135 -334 193 -429 104 -172 170 -381 192 -614 10 -99 3 -112 -52 -105 -24
2 -78 21 -119 41 -88 44 -156 108 -301 286 -57 69 -131 155 -167 193 -53 56
-69 67 -96 67 -40 0 -70 -24 -70 -56 0 -26 46 -155 114 -323 30 -72 46 -126
44 -145 -3 -27 -7 -31 -37 -34 -80 -8 -289 74 -474 185 -469 282 -856 600
-1234 1016 -128 140 -185 188 -197 168 -15 -23 66 -228 129 -328 127 -200 458
-571 680 -762 261 -225 594 -425 933 -560 110 -44 133 -57 138 -77 4 -15 -11
-94 -35 -192 -338 -1358 -1012 -2511 -1986 -3397 -308 -281 -603 -507 -930
-714 -172 -109 -433 -286 -462 -314 -34 -32 -43 -71 -23 -107 5 -10 56 -54
112 -98 350 -270 682 -730 638 -883 -24 -81 -58 -79 -136 9 -67 74 -157 129
-193 117 -35 -11 -54 -60 -47 -119 6 -44 4 -56 -15 -80 -45 -57 -89 -55 -197
10 -89 54 -179 78 -271 71 -42 -3 -101 -14 -131 -26 -30 -12 -64 -21 -75 -21
-26 0 -148 67 -233 128 -125 88 -265 240 -352 380 -30 49 -31 54 -17 76 9 13
28 27 44 31 93 23 296 133 406 220 46 37 57 51 57 75 0 17 -9 39 -21 51 -20
20 -29 21 -108 16 -47 -3 -165 -21 -261 -40 -461 -92 -894 -146 -1310 -162
-85 -4 -240 -15 -345 -25 -422 -42 -503 -45 -1050 -45 -424 1 -581 5 -732 18
-105 9 -243 17 -305 17 -511 0 -1296 87 -1854 205 -194 41 -323 53 -376 36
-40 -13 -64 -55 -53 -90 14 -46 171 -150 345 -228 52 -23 96 -48 98 -55 4 -20
-145 -213 -234 -304 -129 -133 -301 -261 -448 -336 -68 -34 -95 -32 -114 11
-7 16 -26 34 -42 41 -27 11 -36 9 -92 -21 -54 -28 -76 -33 -150 -37 -142 -7
-161 6 -137 98 11 42 10 52 -5 74 -13 20 -25 26 -52 26 -56 0 -98 -26 -160
-98 -60 -71 -98 -102 -126 -102 -30 0 -48 40 -48 105 0 51 7 75 41 146 111
230 212 347 572 658 192 166 186 153 120 262 -46 76 -126 144 -260 220 -174
100 -517 348 -762 552 -333 276 -742 692 -970 987 -502 649 -837 1269 -1096
2030 -97 287 -225 748 -225 813 0 22 11 28 120 66 294 101 534 245 865 520
244 203 552 509 717 711 31 39 198 384 198 411 0 5 -4 9 -9 9 -35 0 -83 -39
-211 -169 -574 -585 -891 -837 -1329 -1055 -171 -85 -355 -158 -388 -154 -47
5 -41 43 47 295 99 286 105 353 31 353 -35 0 -190 -161 -270 -280 -125 -186
-198 -260 -336 -342 -86 -52 -100 -54 -131 -23 -24 24 -25 29 -19 108 18 234
51 343 193 637 185 382 191 401 152 440 -52 52 -115 14 -345 -210 -161 -157
-279 -249 -377 -296 -45 -21 -72 -13 -62 18 24 78 244 530 364 748 120 219
1632 2810 1640 2810 9 0 94 -116 200 -273 117 -172 394 -457 633 -651 279
-225 798 -524 1232 -708 387 -165 832 -306 1240 -393 94 -20 227 -50 297 -66
646 -148 1126 -215 1793 -250 313 -17 1311 -18 1530 -1 861 64 1641 205 2260
409 782 257 1183 434 1735 766 253 152 342 217 298 217 -6 0 -68 -27 -137 -59
-1319 -618 -2861 -988 -4426 -1062 -280 -13 -1013 -7 -1265 11 -1109 77 -1857
219 -2775 524 -464 155 -749 276 -1035 441 -364 209 -641 424 -926 717 -234
241 -246 261 -400 641 -128 316 -192 767 -165 1162 32 467 130 888 303 1300
299 713 715 1530 1120 2196 340 559 407 648 553 731 100 57 293 156 364 187
117 52 171 128 178 256 18 281 -98 557 -329 781 -184 179 -377 264 -603 264
-222 0 -404 -78 -558 -239 -108 -113 -172 -229 -248 -445 -21 -59 -40 -110
-43 -113 -10 -11 -21 121 -20 257 1 341 112 599 379 878 142 150 336 240 590
273 112 15 264 6 370 -21 349 -88 678 -430 749 -778 34 -168 27 -368 -20 -505
-13 -39 -24 -81 -24 -94 0 -49 3 -46 305 268 79 82 106 103 220 167 254 143
876 442 919 442 16 0 3 -36 -32 -88 -102 -151 -274 -479 -288 -551 -13 -64 34
-50 196 57 116 77 308 271 387 390 76 115 235 418 371 707 103 219 117 244
127 233 3 -3 23 -72 45 -154 100 -383 217 -632 402 -852 71 -84 231 -232 252
-232 8 0 11 78 11 278 1 206 5 309 18 402 36 255 93 487 178 715 47 128 194
435 208 435 6 0 13 -5 16 -10z m-4387 -1566 c183 -37 368 -163 479 -324 33
-49 86 -150 81 -155 -2 -2 -46 5 -98 16 -120 25 -330 56 -437 65 -79 7 -82 6
-108 -20 -30 -30 -27 -55 9 -95 26 -29 129 -81 219 -110 39 -14 67 -28 67 -36
0 -16 -129 -188 -189 -253 -22 -23 -63 -62 -92 -87 -65 -55 -89 -91 -89 -131
0 -41 22 -67 88 -102 l53 -29 -136 -102 c-167 -125 -175 -129 -218 -109 -53
26 -179 131 -227 192 -139 173 -199 369 -187 610 10 221 96 391 267 533 156
129 331 176 518 137z m8954 -27 c201 -77 366 -252 437 -463 111 -331 -37 -738
-353 -971 -47 -35 -65 -43 -85 -38 -14 4 -81 45 -149 92 -136 96 -147 114 -71
123 72 9 128 57 164 143 32 77 25 92 -90 204 -57 56 -160 146 -227 200 -158
127 -164 147 -53 191 60 24 90 59 81 96 -5 20 -13 26 -33 26 -83 0 -293 -87
-411 -169 -62 -44 -91 -50 -117 -25 -18 18 -15 30 26 122 45 101 113 194 203
279 95 90 192 151 297 187 104 35 103 35 214 32 78 -3 115 -9 167 -29z"/>
<path d="M12425 20683 c-239 -24 -429 -187 -501 -428 -27 -89 -25 -258 3 -350
60 -191 226 -353 403 -394 67 -15 198 -13 265 5 181 47 342 210 399 404 93
314 -87 662 -384 743 -60 17 -138 25 -185 20z m107 -168 c34 -7 94 -58 114
-96 17 -33 19 -131 3 -162 -17 -33 -60 -77 -92 -94 -16 -8 -53 -14 -82 -14
-99 0 -178 69 -188 166 -6 53 9 100 45 141 36 41 61 56 108 64 35 6 43 6 92
-5z"/>
<path d="M17240 20657 c-148 -50 -254 -143 -319 -279 -47 -99 -61 -162 -61
-271 0 -167 64 -321 181 -438 315 -316 822 -161 915 281 19 87 14 214 -12 300
-59 200 -222 364 -414 415 -84 22 -212 19 -290 -8z m213 -153 c69 -35 107 -95
107 -168 0 -98 -61 -171 -158 -189 -128 -25 -246 106 -212 234 13 47 63 107
105 125 42 18 120 17 158 -2z"/>
<path d="M14810 19154 c-279 -24 -430 -66 -547 -155 -51 -38 -93 -100 -93
-136 1 -42 40 -102 92 -141 66 -49 308 -180 488 -263 74 -34 143 -70 154 -79
17 -17 19 -42 23 -382 6 -392 -7 -686 -32 -783 -41 -155 -125 -265 -245 -322
-84 -40 -150 -53 -265 -53 -271 0 -534 121 -714 329 -66 76 -71 92 -53 157 24
86 -6 131 -100 149 -81 15 -148 -39 -148 -120 0 -81 143 -299 286 -435 201
-192 465 -309 764 -339 93 -9 107 -13 120 -33 8 -13 38 -48 67 -79 90 -95 195
-139 335 -139 185 0 300 59 411 211 26 36 28 37 113 44 322 27 592 156 810
388 138 146 224 286 224 362 0 102 -109 167 -200 120 -53 -27 -60 -71 -22
-137 22 -38 8 -60 -103 -174 -193 -196 -435 -309 -665 -308 -130 0 -195 22
-273 94 -129 118 -158 245 -177 790 -16 469 -16 601 -1 637 11 28 37 45 185
121 239 124 436 243 478 290 20 22 39 54 43 70 9 43 -23 112 -68 147 -71 53
-286 120 -482 150 -99 15 -328 25 -405 19z m263 -2415 c60 -50 111 -98 114
-107 13 -33 -92 -86 -192 -98 -28 -3 -77 -1 -110 5 -71 13 -185 66 -185 86 0
15 237 205 255 205 6 0 59 -41 118 -91z"/>
</g>
</svg>
